<svg width="88" height="78" viewBox="0 0 88 78" fill="none" xmlns="http://www.w3.org/2000/svg">
<path d="M71.148 16.4082L64.9451 12.3926L47.8398 16.4082L71.148 33.3071V16.4082Z" fill="url(#paint0_linear_612_17354)"/>
<path d="M64.9434 43.6805L71.1467 41.8398V57.2332L64.9434 58.739V43.6805Z" fill="url(#paint1_linear_612_17354)"/>
<path d="M71.1465 57.2346V16.4092L87.6878 26.9501V53.3863L71.1465 57.2346Z" fill="url(#paint2_linear_612_17354)"/>
<path d="M47.8398 77.8138V16.4082L64.9451 12.3926V73.7982L47.8398 77.8138Z" fill="url(#paint3_linear_612_17354)"/>
<path d="M24.5286 68.7782H17.7617V48.7002H24.5286V68.7782Z" fill="url(#paint4_linear_612_17354)"/>
<path d="M41.8586 64.5959L24.5147 68.7788V15.9061L17.7617 17.5795L33.2328 0.178711L48.5889 10.2174L41.8586 11.882V64.5959Z" fill="url(#paint5_linear_612_17354)"/>
<path d="M17.7623 23.9385V68.7796L0.46875 50.542V28.1214L17.7623 23.9385Z" fill="url(#paint6_linear_612_17354)"/>
<defs>
<linearGradient id="paint0_linear_612_17354" x1="-103.853" y1="-156.765" x2="69.0454" y2="68.3185" gradientUnits="userSpaceOnUse">
<stop stop-color="#413EFF"/>
<stop offset="1" stop-color="#1714CD"/>
</linearGradient>
<linearGradient id="paint1_linear_612_17354" x1="106.581" y1="46.1594" x2="67.4409" y2="58.8397" gradientUnits="userSpaceOnUse">
<stop stop-color="#413EFF"/>
<stop offset="1" stop-color="#1714CD"/>
</linearGradient>
<linearGradient id="paint2_linear_612_17354" x1="84.8681" y1="-1.3265" x2="80.5444" y2="66.1747" gradientUnits="userSpaceOnUse">
<stop stop-color="#1714CD"/>
<stop offset="1" stop-color="#413EFF"/>
</linearGradient>
<linearGradient id="paint3_linear_612_17354" x1="61.9377" y1="-35.9622" x2="44.6589" y2="112.994" gradientUnits="userSpaceOnUse">
<stop stop-color="#1714CD"/>
<stop offset="1" stop-color="#413EFF"/>
</linearGradient>
<linearGradient id="paint4_linear_612_17354" x1="21.145" y1="4.72932" x2="21.145" y2="86.9941" gradientUnits="userSpaceOnUse">
<stop stop-color="#413EFF"/>
<stop offset="1" stop-color="#1714CD"/>
</linearGradient>
<linearGradient id="paint5_linear_612_17354" x1="33.1753" y1="-9.82777" x2="33.1753" y2="68.7788" gradientUnits="userSpaceOnUse">
<stop stop-color="#1714CD"/>
<stop offset="1" stop-color="#413EFF"/>
</linearGradient>
<linearGradient id="paint6_linear_612_17354" x1="9.21895" y1="21.2613" x2="9.21895" y2="68.7796" gradientUnits="userSpaceOnUse">
<stop stop-color="#1714CD"/>
<stop offset="1" stop-color="#3E3BFC"/>
</linearGradient>
</defs>
</svg>
