<svg width="277" height="194" viewBox="0 0 277 194" fill="none" xmlns="http://www.w3.org/2000/svg">
<path d="M43.1925 3.51812V19.75H40.2759V5.95924H33.1744V19.75H30.2578V3.51812H43.1925ZM46.5828 24.3152V7.57609H49.4043V9.58922H49.5708C49.7187 9.29333 49.9274 8.97894 50.1969 8.64606C50.4664 8.3079 50.831 8.01993 51.2906 7.78216C51.7503 7.5391 52.3368 7.41757 53.0502 7.41757C53.9907 7.41757 54.8387 7.65799 55.5943 8.13881C56.3552 8.61436 56.9575 9.31975 57.4014 10.255C57.8505 11.1849 58.0751 12.3262 58.0751 13.6789C58.0751 15.0157 57.8558 16.1517 57.4172 17.087C56.9787 18.0222 56.3816 18.7355 55.626 19.2269C54.8704 19.7183 54.0145 19.964 53.0581 19.964C52.3606 19.964 51.782 19.8478 51.3223 19.6153C50.8627 19.3828 50.4928 19.1027 50.2127 18.7751C49.938 18.4423 49.724 18.1279 49.5708 17.832H49.4519V24.3152H46.5828ZM49.3964 13.663C49.3964 14.4503 49.5074 15.1399 49.7293 15.7317C49.9565 16.3234 50.2814 16.7858 50.7041 17.1187C51.1321 17.4463 51.6499 17.6101 52.2576 17.6101C52.8916 17.6101 53.4227 17.441 53.8507 17.1028C54.2786 16.7594 54.601 16.2917 54.8176 15.7C55.0395 15.1029 55.1505 14.4239 55.1505 13.663C55.1505 12.9075 55.0422 12.2364 54.8255 11.6499C54.6089 11.0634 54.2866 10.6037 53.8586 10.2708C53.4306 9.93795 52.8969 9.77151 52.2576 9.77151C51.6447 9.77151 51.1242 9.93267 50.6962 10.255C50.2682 10.5773 49.9433 11.0291 49.7214 11.6103C49.5047 12.1915 49.3964 12.8758 49.3964 13.663ZM65.8423 19.9878C64.6534 19.9878 63.6231 19.7262 62.7512 19.2031C61.8794 18.68 61.2031 17.9482 60.7223 17.0077C60.2467 16.0672 60.0089 14.9681 60.0089 13.7106C60.0089 12.453 60.2467 11.3514 60.7223 10.4056C61.2031 9.45977 61.8794 8.72532 62.7512 8.20222C63.6231 7.67912 64.6534 7.41757 65.8423 7.41757C67.0311 7.41757 68.0615 7.67912 68.9333 8.20222C69.8051 8.72532 70.4788 9.45977 70.9544 10.4056C71.4352 11.3514 71.6756 12.453 71.6756 13.7106C71.6756 14.9681 71.4352 16.0672 70.9544 17.0077C70.4788 17.9482 69.8051 18.68 68.9333 19.2031C68.0615 19.7262 67.0311 19.9878 65.8423 19.9878ZM65.8581 17.6893C66.5028 17.6893 67.0417 17.5123 67.475 17.1583C67.9082 16.799 68.2306 16.3182 68.4419 15.7158C68.6586 15.1135 68.7669 14.4424 68.7669 13.7027C68.7669 12.9577 68.6586 12.284 68.4419 11.6816C68.2306 11.074 67.9082 10.5905 67.475 10.2312C67.0417 9.87191 66.5028 9.69226 65.8581 9.69226C65.1977 9.69226 64.6481 9.87191 64.2096 10.2312C63.7763 10.5905 63.4514 11.074 63.2347 11.6816C63.0234 12.284 62.9177 12.9577 62.9177 13.7027C62.9177 14.4424 63.0234 15.1135 63.2347 15.7158C63.4514 16.3182 63.7763 16.799 64.2096 17.1583C64.6481 17.5123 65.1977 17.6893 65.8581 17.6893ZM82.1633 7.57609V9.93003H76.9165V19.75H74.1108V7.57609H82.1633ZM84.4638 24.3152V7.57609H87.2853V9.58922H87.4518C87.5997 9.29333 87.8084 8.97894 88.0779 8.64606C88.3474 8.3079 88.712 8.01993 89.1716 7.78216C89.6313 7.5391 90.2178 7.41757 90.9312 7.41757C91.8717 7.41757 92.7197 7.65799 93.4753 8.13881C94.2362 8.61436 94.8385 9.31975 95.2824 10.255C95.7315 11.1849 95.9561 12.3262 95.9561 13.6789C95.9561 15.0157 95.7368 16.1517 95.2982 17.087C94.8597 18.0222 94.2626 18.7355 93.507 19.2269C92.7514 19.7183 91.8955 19.964 90.9391 19.964C90.2416 19.964 89.663 19.8478 89.2034 19.6153C88.7437 19.3828 88.3738 19.1027 88.0937 18.7751C87.819 18.4423 87.605 18.1279 87.4518 17.832H87.3329V24.3152H84.4638ZM87.2774 13.663C87.2774 14.4503 87.3884 15.1399 87.6103 15.7317C87.8375 16.3234 88.1624 16.7858 88.5851 17.1187C89.0131 17.4463 89.5309 17.6101 90.1386 17.6101C90.7726 17.6101 91.3037 17.441 91.7317 17.1028C92.1596 16.7594 92.482 16.2917 92.6986 15.7C92.9205 15.1029 93.0315 14.4239 93.0315 13.663C93.0315 12.9075 92.9232 12.2364 92.7065 11.6499C92.4899 11.0634 92.1676 10.6037 91.7396 10.2708C91.3116 9.93795 90.7779 9.77151 90.1386 9.77151C89.5257 9.77151 89.0052 9.93267 88.5772 10.255C88.1492 10.5773 87.8243 11.0291 87.6024 11.6103C87.3857 12.1915 87.2774 12.8758 87.2774 13.663ZM103.803 19.9878C102.582 19.9878 101.528 19.7341 100.64 19.2269C99.7578 18.7144 99.0788 17.9905 98.6033 17.0553C98.1277 16.1147 97.8899 15.0078 97.8899 13.7344C97.8899 12.4821 98.1277 11.3831 98.6033 10.4373C99.0841 9.48619 99.7551 8.74645 100.616 8.21807C101.478 7.68441 102.49 7.41757 103.652 7.41757C104.402 7.41757 105.11 7.5391 105.776 7.78216C106.447 8.01993 107.039 8.38979 107.551 8.89176C108.069 9.39372 108.476 10.0331 108.772 10.8098C109.068 11.5812 109.216 12.5006 109.216 13.5679V14.4477H99.2373V12.5138H106.466C106.46 11.9643 106.341 11.4755 106.109 11.0476C105.876 10.6143 105.551 10.2735 105.134 10.0251C104.722 9.7768 104.241 9.65263 103.692 9.65263C103.105 9.65263 102.59 9.79529 102.146 10.0806C101.702 10.3607 101.356 10.7305 101.108 11.1902C100.865 11.6446 100.741 12.1439 100.735 12.6882V14.3764C100.735 15.0844 100.865 15.692 101.124 16.1993C101.383 16.7012 101.744 17.087 102.209 17.3564C102.674 17.6206 103.219 17.7527 103.842 17.7527C104.26 17.7527 104.637 17.6946 104.976 17.5784C105.314 17.4568 105.607 17.2798 105.855 17.0473C106.104 16.8148 106.291 16.5269 106.418 16.1834L109.097 16.4846C108.928 17.1926 108.606 17.8108 108.13 18.3392C107.66 18.8623 107.057 19.2692 106.323 19.5598C105.588 19.8451 104.748 19.9878 103.803 19.9878ZM116.953 19.9878C115.738 19.9878 114.694 19.7209 113.823 19.1873C112.956 18.6536 112.288 17.9165 111.817 16.976C111.352 16.0302 111.12 14.9417 111.12 13.7106C111.12 12.4742 111.358 11.3831 111.833 10.4373C112.309 9.48619 112.98 8.74645 113.846 8.21807C114.718 7.68441 115.749 7.41757 116.937 7.41757C117.926 7.41757 118.8 7.59986 119.561 7.96445C120.327 8.32375 120.937 8.83364 121.392 9.49411C121.846 10.1493 122.105 10.9155 122.168 11.7926H119.426C119.315 11.2061 119.051 10.7173 118.634 10.3263C118.221 9.93003 117.669 9.73188 116.977 9.73188C116.391 9.73188 115.875 9.8904 115.432 10.2074C114.988 10.5192 114.642 10.9683 114.393 11.5548C114.15 12.1413 114.029 12.8441 114.029 13.663C114.029 14.4926 114.15 15.2059 114.393 15.803C114.636 16.3948 114.977 16.8518 115.416 17.1741C115.86 17.4912 116.38 17.6497 116.977 17.6497C117.4 17.6497 117.778 17.5704 118.11 17.4119C118.449 17.2481 118.731 17.013 118.958 16.7065C119.186 16.4001 119.342 16.0276 119.426 15.589H122.168C122.1 16.4503 121.846 17.2138 121.408 17.8795C120.969 18.54 120.372 19.0578 119.616 19.433C118.861 19.8028 117.973 19.9878 116.953 19.9878ZM129.835 19.9878C128.619 19.9878 127.576 19.7209 126.704 19.1873C125.837 18.6536 125.169 17.9165 124.699 16.976C124.234 16.0302 124.001 14.9417 124.001 13.7106C124.001 12.4742 124.239 11.3831 124.715 10.4373C125.19 9.48619 125.861 8.74645 126.728 8.21807C127.6 7.68441 128.63 7.41757 129.819 7.41757C130.807 7.41757 131.681 7.59986 132.442 7.96445C133.208 8.32375 133.819 8.83364 134.273 9.49411C134.727 10.1493 134.986 10.9155 135.05 11.7926H132.307C132.196 11.2061 131.932 10.7173 131.515 10.3263C131.103 9.93003 130.551 9.73188 129.858 9.73188C129.272 9.73188 128.757 9.8904 128.313 10.2074C127.869 10.5192 127.523 10.9683 127.275 11.5548C127.032 12.1413 126.91 12.8441 126.91 13.663C126.91 14.4926 127.032 15.2059 127.275 15.803C127.518 16.3948 127.858 16.8518 128.297 17.1741C128.741 17.4912 129.261 17.6497 129.858 17.6497C130.281 17.6497 130.659 17.5704 130.992 17.4119C131.33 17.2481 131.613 17.013 131.84 16.7065C132.067 16.4001 132.223 16.0276 132.307 15.589H135.05C134.981 16.4503 134.727 17.2138 134.289 17.8795C133.85 18.54 133.253 19.0578 132.498 19.433C131.742 19.8028 130.854 19.9878 129.835 19.9878ZM148.252 19.9878C147.063 19.9878 146.033 19.7262 145.161 19.2031C144.289 18.68 143.613 17.9482 143.132 17.0077C142.656 16.0672 142.419 14.9681 142.419 13.7106C142.419 12.453 142.656 11.3514 143.132 10.4056C143.613 9.45977 144.289 8.72532 145.161 8.20222C146.033 7.67912 147.063 7.41757 148.252 7.41757C149.441 7.41757 150.471 7.67912 151.343 8.20222C152.215 8.72532 152.889 9.45977 153.364 10.4056C153.845 11.3514 154.085 12.453 154.085 13.7106C154.085 14.9681 153.845 16.0672 153.364 17.0077C152.889 17.9482 152.215 18.68 151.343 19.2031C150.471 19.7262 149.441 19.9878 148.252 19.9878ZM148.268 17.6893C148.912 17.6893 149.451 17.5123 149.885 17.1583C150.318 16.799 150.64 16.3182 150.852 15.7158C151.068 15.1135 151.177 14.4424 151.177 13.7027C151.177 12.9577 151.068 12.284 150.852 11.6816C150.64 11.074 150.318 10.5905 149.885 10.2312C149.451 9.87191 148.912 9.69226 148.268 9.69226C147.607 9.69226 147.058 9.87191 146.619 10.2312C146.186 10.5905 145.861 11.074 145.644 11.6816C145.433 12.284 145.327 12.9577 145.327 13.7027C145.327 14.4424 145.433 15.1135 145.644 15.7158C145.861 16.3182 146.186 16.799 146.619 17.1583C147.058 17.5123 147.607 17.6893 148.268 17.6893ZM166.277 3.07428L167.276 4.9289C166.922 5.23536 166.525 5.45728 166.087 5.59466C165.648 5.73204 165.133 5.82186 164.541 5.86413C163.955 5.90112 163.257 5.92754 162.449 5.94339C161.54 5.96452 160.798 6.13625 160.222 6.45856C159.646 6.78087 159.205 7.26963 158.898 7.92482C158.592 8.57473 158.391 9.40429 158.296 10.4135H158.431C158.811 9.66848 159.345 9.10047 160.032 8.70947C160.718 8.31846 161.524 8.12296 162.449 8.12296C163.458 8.12296 164.348 8.35017 165.12 8.80457C165.897 9.2537 166.502 9.90625 166.935 10.7622C167.373 11.6182 167.593 12.6538 167.593 13.8691C167.593 15.1214 167.358 16.2072 166.887 17.1266C166.417 18.0407 165.749 18.7461 164.882 19.2428C164.021 19.7394 162.998 19.9878 161.815 19.9878C160.637 19.9878 159.612 19.7315 158.74 19.219C157.873 18.7012 157.202 17.9377 156.727 16.9284C156.256 15.9139 156.021 14.6643 156.021 13.1796V12.0858C156.021 9.222 156.555 7.08469 157.622 5.67391C158.69 4.26313 160.272 3.54453 162.37 3.51812C162.993 3.50755 163.551 3.50491 164.042 3.51019C164.539 3.51547 164.972 3.4917 165.342 3.43886C165.712 3.38602 166.023 3.26449 166.277 3.07428ZM161.831 17.6893C162.417 17.6893 162.924 17.5387 163.352 17.2375C163.78 16.9311 164.108 16.4978 164.335 15.9377C164.568 15.3776 164.684 14.7145 164.684 13.9484C164.684 13.1928 164.568 12.5508 164.335 12.0224C164.103 11.4888 163.773 11.0819 163.345 10.8019C162.917 10.5218 162.407 10.3818 161.815 10.3818C161.371 10.3818 160.972 10.4611 160.618 10.6196C160.264 10.7781 159.963 11.0106 159.715 11.317C159.466 11.6235 159.276 11.996 159.144 12.4346C159.012 12.8731 158.94 13.3777 158.93 13.9484C158.93 15.095 159.189 16.0064 159.707 16.6827C160.224 17.3538 160.932 17.6893 161.831 17.6893ZM171.817 24.3152C171.426 24.3152 171.064 24.2835 170.731 24.2201C170.404 24.162 170.142 24.0933 169.947 24.014L170.612 21.779C171.03 21.9005 171.402 21.9586 171.73 21.9534C172.058 21.9481 172.346 21.845 172.594 21.6442C172.847 21.4487 173.061 21.1212 173.236 20.6615L173.482 20.0036L169.067 7.57609H172.11L174.916 16.7699H175.043L177.857 7.57609H180.908L176.034 21.2242C175.806 21.8688 175.505 22.421 175.13 22.8807C174.755 23.3456 174.295 23.6997 173.751 23.9427C173.212 24.191 172.567 24.3152 171.817 24.3152ZM192.713 7.57609V19.75H189.955V7.57609H192.713ZM191.421 13.0765V15.4226C191.11 15.5599 190.756 15.6841 190.359 15.7951C189.968 15.9007 189.554 15.9853 189.115 16.0487C188.682 16.1121 188.248 16.1438 187.815 16.1438C186.188 16.1438 184.901 15.7792 183.955 15.05C183.015 14.3156 182.545 13.1716 182.545 11.6182V7.56023H185.287V11.6182C185.287 12.1413 185.379 12.5614 185.564 12.8784C185.749 13.1954 186.029 13.4279 186.404 13.5759C186.78 13.7185 187.25 13.7899 187.815 13.7899C188.449 13.7899 189.052 13.7264 189.622 13.5996C190.193 13.4728 190.793 13.2985 191.421 13.0765ZM200.99 19.9878C199.769 19.9878 198.715 19.7341 197.827 19.2269C196.945 18.7144 196.266 17.9905 195.79 17.0553C195.315 16.1147 195.077 15.0078 195.077 13.7344C195.077 12.4821 195.315 11.3831 195.79 10.4373C196.271 9.48619 196.942 8.74645 197.804 8.21807C198.665 7.68441 199.677 7.41757 200.839 7.41757C201.589 7.41757 202.297 7.5391 202.963 7.78216C203.634 8.01993 204.226 8.38979 204.739 8.89176C205.256 9.39372 205.663 10.0331 205.959 10.8098C206.255 11.5812 206.403 12.5006 206.403 13.5679V14.4477H196.425V12.5138H203.653C203.648 11.9643 203.529 11.4755 203.296 11.0476C203.064 10.6143 202.739 10.2735 202.321 10.0251C201.909 9.7768 201.428 9.65263 200.879 9.65263C200.292 9.65263 199.777 9.79529 199.333 10.0806C198.889 10.3607 198.543 10.7305 198.295 11.1902C198.052 11.6446 197.928 12.1439 197.922 12.6882V14.3764C197.922 15.0844 198.052 15.692 198.311 16.1993C198.57 16.7012 198.932 17.087 199.397 17.3564C199.862 17.6206 200.406 17.7527 201.029 17.7527C201.447 17.7527 201.825 17.6946 202.163 17.5784C202.501 17.4568 202.794 17.2798 203.043 17.0473C203.291 16.8148 203.478 16.5269 203.605 16.1834L206.284 16.4846C206.115 17.1926 205.793 17.8108 205.317 18.3392C204.847 18.8623 204.245 19.2692 203.51 19.5598C202.776 19.8451 201.936 19.9878 200.99 19.9878ZM217.192 12.4742V14.8281H210.709V12.4742H217.192ZM211.596 7.57609V19.75H208.83V7.57609H211.596ZM219.07 7.57609V19.75H216.312V7.57609H219.07ZM224.739 15.8664L229.613 7.57609H232.562V19.75H229.788V11.4518L224.929 19.75H221.973V7.57609H224.739V15.8664ZM242.705 19.75V9.90625H240.105C239.445 9.90625 238.937 10.0595 238.583 10.3659C238.229 10.6724 238.055 11.0528 238.06 11.5072C238.055 11.9617 238.221 12.3368 238.56 12.6327C238.898 12.9286 239.381 13.0765 240.01 13.0765H243.608V15.1689H240.01C239.038 15.1689 238.198 15.0157 237.49 14.7092C236.782 14.4028 236.237 13.9695 235.857 13.4094C235.477 12.8493 235.286 12.1941 235.286 11.4438C235.286 10.6618 235.479 9.98287 235.865 9.40693C236.256 8.82571 236.811 8.37659 237.529 8.05956C238.253 7.73724 239.112 7.57609 240.105 7.57609H245.392V19.75H242.705ZM234.842 19.75L238.243 13.5045H241.072L237.664 19.75H234.842Z" fill="#1E1B39"/>
<mask id="mask0_713_12871" style="mask-type:alpha" maskUnits="userSpaceOnUse" x="0" y="51" width="277" height="143">
<rect x="0.712891" y="51.5254" width="276.196" height="141.725" fill="#D9D9D9"/>
</mask>
<g mask="url(#mask0_713_12871)">
<mask id="path-3-inside-1_713_12871" fill="white">
<path d="M6.06221 192.624C3.12777 192.691 0.684276 190.365 0.729928 187.43C1.04399 167.24 5.69335 147.343 14.3754 129.151C23.8185 109.363 37.7589 92.1664 55.0346 78.9929C72.3103 65.8195 92.4208 57.0511 113.69 53.4187C133.235 50.0809 153.238 51.1687 172.288 56.5781C175.086 57.3727 176.607 60.3434 175.736 63.1186L172.74 72.6616C171.854 75.4837 168.836 77.0256 165.984 76.2405C150.048 71.8537 133.352 71.012 117.032 73.7993C98.9448 76.8881 81.8434 84.3444 67.1527 95.5468C52.4621 106.749 40.6076 121.373 32.5774 138.199C25.3071 153.434 21.3623 170.074 20.9886 186.973C20.9238 189.904 18.6145 192.334 15.6838 192.401L6.06221 192.624Z"/>
</mask>
<path d="M6.06221 192.624C3.12777 192.691 0.684276 190.365 0.729928 187.43C1.04399 167.24 5.69335 147.343 14.3754 129.151C23.8185 109.363 37.7589 92.1664 55.0346 78.9929C72.3103 65.8195 92.4208 57.0511 113.69 53.4187C133.235 50.0809 153.238 51.1687 172.288 56.5781C175.086 57.3727 176.607 60.3434 175.736 63.1186L172.74 72.6616C171.854 75.4837 168.836 77.0256 165.984 76.2405C150.048 71.8537 133.352 71.012 117.032 73.7993C98.9448 76.8881 81.8434 84.3444 67.1527 95.5468C52.4621 106.749 40.6076 121.373 32.5774 138.199C25.3071 153.434 21.3623 170.074 20.9886 186.973C20.9238 189.904 18.6145 192.334 15.6838 192.401L6.06221 192.624Z" stroke="#4A3AFF" stroke-width="39.8342" stroke-linecap="round" stroke-linejoin="round" mask="url(#path-3-inside-1_713_12871)"/>
<mask id="path-4-inside-2_713_12871" fill="white">
<path d="M175.485 62.0417C176.241 59.1853 179.186 57.4842 182.001 58.3828C208.638 66.8875 232.093 83.6099 249.097 106.311C266.131 129.053 275.794 156.6 276.818 185.12C276.923 188.052 274.531 190.427 271.597 190.421L261.973 190.403C259.04 190.398 256.679 188.014 256.554 185.084C255.534 161.114 247.339 137.989 233.012 118.861C218.693 99.7442 198.994 85.6135 176.616 78.3173C173.847 77.4146 172.181 74.5371 172.926 71.7218L175.485 62.0417Z"/>
</mask>
<path d="M175.485 62.0417C176.241 59.1853 179.186 57.4842 182.001 58.3828C208.638 66.8875 232.093 83.6099 249.097 106.311C266.131 129.053 275.794 156.6 276.818 185.12C276.923 188.052 274.531 190.427 271.597 190.421L261.973 190.403C259.04 190.398 256.679 188.014 256.554 185.084C255.534 161.114 247.339 137.989 233.012 118.861C218.693 99.7442 198.994 85.6135 176.616 78.3173C173.847 77.4146 172.181 74.5371 172.926 71.7218L175.485 62.0417Z" stroke="#E9E9E9" stroke-width="39.8342" stroke-linecap="round" stroke-linejoin="round" mask="url(#path-4-inside-2_713_12871)"/>
</g>
<g filter="url(#filter0_d_713_12871)">
<circle cx="172.289" cy="67.9853" r="17.5761" fill="#4A3AFF"/>
<circle cx="172.289" cy="67.9853" r="15.9163" stroke="white" stroke-width="3.31951"/>
</g>
<path d="M92.7788 147.204H116.6V154.143L104.793 183.453H95.9894L107.382 155.179H92.7788V147.204ZM118.787 183.453V177.446L130.956 164.811C133.079 162.636 134.633 160.513 134.633 158.389C134.633 156.111 133.183 154.557 130.749 154.557C128.211 154.557 126.399 156.215 125.415 158.493L118.424 154.402C120.755 149.016 125.622 146.479 130.645 146.479C137.118 146.479 142.918 150.725 142.918 158.027C142.918 162.377 140.588 166.105 137.274 169.42L131.267 175.478H143.436V183.453H118.787ZM155.835 164.086C150.657 164.086 146.825 160.15 146.825 155.282C146.825 150.415 150.657 146.479 155.835 146.479C160.962 146.479 164.794 150.259 164.794 155.282C164.794 160.15 160.962 164.086 155.835 164.086ZM151.123 177.757L174.529 151.865L177.947 153.832L154.541 179.776L151.123 177.757ZM155.783 158.131C157.441 158.131 158.58 156.784 158.58 155.282C158.58 153.677 157.441 152.434 155.783 152.434C154.178 152.434 153.039 153.677 153.039 155.282C153.039 156.888 154.178 158.131 155.783 158.131ZM174.322 184.075C169.144 184.075 165.312 180.139 165.312 175.271C165.312 170.403 169.144 166.468 174.322 166.468C179.449 166.468 183.281 170.403 183.281 175.271C183.281 180.139 179.449 184.075 174.322 184.075ZM174.27 178.119C175.928 178.119 177.067 176.773 177.067 175.271C177.067 173.666 175.928 172.423 174.27 172.423C172.665 172.423 171.526 173.666 171.526 175.271C171.526 176.877 172.665 178.119 174.27 178.119Z" fill="#00023E"/>
<defs>
<filter id="filter0_d_713_12871" x="149.402" y="50.4092" width="45.7748" height="45.7748" filterUnits="userSpaceOnUse" color-interpolation-filters="sRGB">
<feFlood flood-opacity="0" result="BackgroundImageFix"/>
<feColorMatrix in="SourceAlpha" type="matrix" values="0 0 0 0 0 0 0 0 0 0 0 0 0 0 0 0 0 0 127 0" result="hardAlpha"/>
<feOffset dy="5.31122"/>
<feGaussianBlur stdDeviation="2.65561"/>
<feComposite in2="hardAlpha" operator="out"/>
<feColorMatrix type="matrix" values="0 0 0 0 0.0509804 0 0 0 0 0.0392157 0 0 0 0 0.172549 0 0 0 0.08 0"/>
<feBlend mode="normal" in2="BackgroundImageFix" result="effect1_dropShadow_713_12871"/>
<feBlend mode="normal" in="SourceGraphic" in2="effect1_dropShadow_713_12871" result="shape"/>
</filter>
</defs>
</svg>
